<svg width="713" height="134" viewBox="0 0 713 134" fill="none" xmlns="http://www.w3.org/2000/svg">
<rect y="9" width="137.903" height="25" rx="12.5" fill="#8A93A7"/>
<rect y="42.1633" width="137.903" height="25" rx="12.5" fill="#FFB619"/>
<rect y="75.8367" width="137.903" height="25" rx="12.5" fill="#8A93A7"/>
<rect y="109" width="137.903" height="25" rx="12.5" fill="#FFB619"/>
<path d="M639.518 116.874V38.958H663.98V49.528C670.02 41.676 677.721 37.75 687.083 37.75C692.116 37.75 696.545 38.9077 700.371 41.223C704.297 43.4377 707.367 46.5583 709.582 50.585C711.796 54.511 712.904 59.0913 712.904 64.326V116.874H688.442V71.423C688.442 66.9937 687.234 63.4703 684.818 60.853C682.502 58.2357 679.382 56.927 675.456 56.927C673.241 56.927 671.177 57.3297 669.265 58.135C667.352 58.8397 665.59 59.9973 663.98 61.608V116.874H639.518Z" fill="black"/>
<path d="M568.757 116.874V57.833H545.956V38.958H568.757V31.257C568.757 10.419 580.485 0 603.94 0C606.859 0 610.081 0.251668 613.604 0.755001C617.228 1.25833 620.399 1.91267 623.117 2.718V22.952C619.292 21.8447 616.121 21.1903 613.604 20.989C611.087 20.687 608.722 20.536 606.507 20.536C601.574 20.536 598.101 21.5427 596.088 23.556C594.175 25.4687 593.219 28.8913 593.219 33.824V38.958H623.117V57.833H593.219V116.874H568.757Z" fill="black"/>
<path d="M497.695 118.384C489.642 118.384 482.394 116.622 475.951 113.099C469.509 109.475 464.425 104.643 460.7 98.603C456.976 92.4623 455.113 85.617 455.113 78.067C455.113 70.4163 456.976 63.571 460.7 57.531C464.425 51.491 469.509 46.7093 475.951 43.186C482.394 39.562 489.642 37.75 497.695 37.75C505.849 37.75 513.198 39.4613 519.741 42.884C526.285 46.3067 531.368 50.8367 534.992 56.474L516.57 69.913C514.859 66.3897 512.342 63.6213 509.02 61.608C505.698 59.5947 501.974 58.588 497.846 58.588C494.323 58.588 491.152 59.4437 488.333 61.155C485.615 62.8663 483.451 65.1817 481.84 68.101C480.23 71.0203 479.424 74.3423 479.424 78.067C479.424 81.7917 480.23 85.1137 481.84 88.033C483.451 90.9523 485.615 93.2677 488.333 94.979C491.152 96.6903 494.323 97.546 497.846 97.546C501.974 97.546 505.698 96.5393 509.02 94.526C512.342 92.412 514.859 89.6437 516.57 86.221L534.992 99.66C531.368 105.297 526.285 109.827 519.741 113.25C513.198 116.673 505.849 118.384 497.695 118.384Z" fill="black"/>
<path d="M403.832 118.384C396.282 118.384 389.235 117.428 382.692 115.515C376.249 113.502 370.713 110.784 366.082 107.361L377.407 91.657C383.145 94.979 387.977 97.2943 391.903 98.603C395.93 99.811 399.956 100.415 403.983 100.415C408.714 100.415 412.288 99.8613 414.704 98.754C417.221 97.6467 418.479 96.0863 418.479 94.073C418.479 92.4623 417.573 91.204 415.761 90.298C414.05 89.392 411.734 88.6873 408.815 88.184C405.996 87.58 402.876 86.976 399.453 86.372C396.03 85.768 392.557 85.013 389.034 84.107C385.611 83.1003 382.44 81.7413 379.521 80.03C376.702 78.3187 374.387 76.104 372.575 73.386C370.864 70.5673 370.008 67.044 370.008 62.816C370.008 57.2793 371.417 52.6487 374.236 48.924C377.055 45.1993 381.031 42.3807 386.165 40.468C391.4 38.4547 397.44 37.448 404.285 37.448C410.325 37.448 416.415 38.3037 422.556 40.015C428.697 41.7263 434.334 44.3437 439.468 47.867L427.69 62.816C423.764 60.1987 419.737 58.286 415.61 57.078C411.583 55.87 407.607 55.266 403.681 55.266C399.654 55.266 396.584 55.7693 394.47 56.776C392.457 57.682 391.45 58.9907 391.45 60.702C391.45 62.3127 392.306 63.571 394.017 64.477C395.829 65.2823 398.195 65.9367 401.114 66.44C404.134 66.9433 407.406 67.497 410.929 68.101C414.452 68.6043 417.925 69.3593 421.348 70.366C424.871 71.272 428.093 72.631 431.012 74.443C434.032 76.1543 436.398 78.4193 438.109 81.238C439.921 84.0567 440.827 87.6807 440.827 92.11C440.827 97.4453 439.166 102.076 435.844 106.002C432.623 109.928 428.193 112.998 422.556 115.213C417.019 117.327 410.778 118.384 403.832 118.384Z" fill="black"/>
<path d="M285.507 116.874L270.709 38.958H289.886L296.53 82.899L305.439 38.958H322.502L331.864 83.05L338.206 38.958H356.779L342.283 116.874H322.955L313.895 70.819L304.986 116.874H285.507Z" fill="black"/>
<path d="M211.878 118.082C206.643 118.082 201.962 117.075 197.835 115.062C193.808 113.049 190.637 110.28 188.322 106.757C186.107 103.234 185 99.1567 185 94.526C185 89.694 186.208 85.617 188.624 82.295C191.04 78.8723 194.513 76.3053 199.043 74.594C203.573 72.782 209.009 71.876 215.351 71.876C218.17 71.876 221.039 72.178 223.958 72.782C226.877 73.386 230.048 74.3927 233.471 75.802V69.158C233.471 65.3327 232.213 62.514 229.696 60.702C227.179 58.7893 223.304 57.833 218.069 57.833C215.15 57.833 211.878 58.3363 208.254 59.343C204.731 60.249 200.704 61.6583 196.174 63.571L187.416 46.206C193.959 43.2867 200.15 41.1727 205.989 39.864C211.928 38.4547 217.767 37.75 223.505 37.75C234.276 37.75 242.632 40.317 248.571 45.451C254.611 50.585 257.631 57.7827 257.631 67.044V116.874H233.471V109.475C230.048 112.495 226.626 114.71 223.203 116.119C219.78 117.428 216.005 118.082 211.878 118.082ZM207.499 94.073C207.499 96.5897 208.556 98.5527 210.67 99.962C212.784 101.271 215.703 101.925 219.428 101.925C222.045 101.925 224.512 101.573 226.827 100.868C229.243 100.063 231.458 98.9553 233.471 97.546V88.335C231.256 87.731 228.991 87.278 226.676 86.976C224.461 86.5733 222.247 86.372 220.032 86.372C216.106 86.372 213.036 87.0263 210.821 88.335C208.606 89.6437 207.499 91.5563 207.499 94.073Z" fill="black"/>
</svg>
