<svg width="713" height="134" viewBox="0 0 713 134" fill="none" xmlns="http://www.w3.org/2000/svg">
<rect y="9" width="137.903" height="25" rx="12.5" fill="#8A93A7"/>
<rect y="42.1633" width="137.903" height="25" rx="12.5" fill="#FFB619"/>
<rect y="75.8367" width="137.903" height="25" rx="12.5" fill="#8A93A7"/>
<rect y="109" width="137.903" height="25" rx="12.5" fill="#FFB619"/>
<path d="M639.421 116.874V38.958H663.883V49.528C669.923 41.676 677.624 37.75 686.986 37.75C692.019 37.75 696.449 38.9077 700.274 41.223C704.2 43.4377 707.27 46.5583 709.485 50.585C711.7 54.511 712.807 59.0913 712.807 64.326V116.874H688.345V71.423C688.345 66.9937 687.137 63.4703 684.721 60.853C682.406 58.2357 679.285 56.927 675.359 56.927C673.144 56.927 671.081 57.3297 669.168 58.135C667.255 58.8397 665.494 59.9973 663.883 61.608V116.874H639.421Z" fill="white"/>
<path d="M568.66 116.874V57.833H545.859V38.958H568.66V31.257C568.66 10.419 580.388 0 603.843 0C606.763 0 609.984 0.251668 613.507 0.755001C617.131 1.25833 620.302 1.91267 623.02 2.718V22.952C619.195 21.8447 616.024 21.1903 613.507 20.989C610.991 20.687 608.625 20.536 606.41 20.536C601.478 20.536 598.005 21.5427 595.991 23.556C594.079 25.4687 593.122 28.8913 593.122 33.824V38.958H623.02V57.833H593.122V116.874H568.66Z" fill="white"/>
<path d="M497.599 118.384C489.545 118.384 482.297 116.622 475.855 113.099C469.412 109.475 464.328 104.643 460.604 98.603C456.879 92.4623 455.017 85.617 455.017 78.067C455.017 70.4163 456.879 63.571 460.604 57.531C464.328 51.491 469.412 46.7093 475.855 43.186C482.297 39.562 489.545 37.75 497.599 37.75C505.753 37.75 513.101 39.4613 519.645 42.884C526.188 46.3067 531.272 50.8367 534.896 56.474L516.474 69.913C514.762 66.3897 512.246 63.6213 508.924 61.608C505.602 59.5947 501.877 58.588 497.75 58.588C494.226 58.588 491.055 59.4437 488.237 61.155C485.519 62.8663 483.354 65.1817 481.744 68.101C480.133 71.0203 479.328 74.3423 479.328 78.067C479.328 81.7917 480.133 85.1137 481.744 88.033C483.354 90.9523 485.519 93.2677 488.237 94.979C491.055 96.6903 494.226 97.546 497.75 97.546C501.877 97.546 505.602 96.5393 508.924 94.526C512.246 92.412 514.762 89.6437 516.474 86.221L534.896 99.66C531.272 105.297 526.188 109.827 519.645 113.25C513.101 116.673 505.753 118.384 497.599 118.384Z" fill="white"/>
<path d="M403.735 118.384C396.185 118.384 389.139 117.428 382.595 115.515C376.153 113.502 370.616 110.784 365.985 107.361L377.31 91.657C383.048 94.979 387.88 97.2943 391.806 98.603C395.833 99.811 399.86 100.415 403.886 100.415C408.618 100.415 412.191 99.8613 414.607 98.754C417.124 97.6467 418.382 96.0863 418.382 94.073C418.382 92.4623 417.476 91.204 415.664 90.298C413.953 89.392 411.638 88.6873 408.718 88.184C405.9 87.58 402.779 86.976 399.356 86.372C395.934 85.768 392.461 85.013 388.937 84.107C385.515 83.1003 382.344 81.7413 379.424 80.03C376.606 78.3187 374.29 76.104 372.478 73.386C370.767 70.5673 369.911 67.044 369.911 62.816C369.911 57.2793 371.321 52.6487 374.139 48.924C376.958 45.1993 380.934 42.3807 386.068 40.468C391.303 38.4547 397.343 37.448 404.188 37.448C410.228 37.448 416.319 38.3037 422.459 40.015C428.6 41.7263 434.237 44.3437 439.371 47.867L427.593 62.816C423.667 60.1987 419.641 58.286 415.513 57.078C411.487 55.87 407.51 55.266 403.584 55.266C399.558 55.266 396.487 55.7693 394.373 56.776C392.36 57.682 391.353 58.9907 391.353 60.702C391.353 62.3127 392.209 63.571 393.92 64.477C395.732 65.2823 398.098 65.9367 401.017 66.44C404.037 66.9433 407.309 67.497 410.832 68.101C414.356 68.6043 417.829 69.3593 421.251 70.366C424.775 71.272 427.996 72.631 430.915 74.443C433.935 76.1543 436.301 78.4193 438.012 81.238C439.824 84.0567 440.73 87.6807 440.73 92.11C440.73 97.4453 439.069 102.076 435.747 106.002C432.526 109.928 428.097 112.998 422.459 115.213C416.923 117.327 410.681 118.384 403.735 118.384Z" fill="white"/>
<path d="M285.41 116.874L270.612 38.958H289.789L296.433 82.899L305.342 38.958H322.405L331.767 83.05L338.109 38.958H356.682L342.186 116.874H322.858L313.798 70.819L304.889 116.874H285.41Z" fill="white"/>
<path d="M211.781 118.082C206.547 118.082 201.866 117.075 197.738 115.062C193.712 113.049 190.541 110.28 188.225 106.757C186.011 103.234 184.903 99.1567 184.903 94.526C184.903 89.694 186.111 85.617 188.527 82.295C190.943 78.8723 194.416 76.3053 198.946 74.594C203.476 72.782 208.912 71.876 215.254 71.876C218.073 71.876 220.942 72.178 223.861 72.782C226.781 73.386 229.952 74.3927 233.374 75.802V69.158C233.374 65.3327 232.116 62.514 229.599 60.702C227.083 58.7893 223.207 57.833 217.972 57.833C215.053 57.833 211.781 58.3363 208.157 59.343C204.634 60.249 200.607 61.6583 196.077 63.571L187.319 46.206C193.863 43.2867 200.054 41.1727 205.892 39.864C211.832 38.4547 217.67 37.75 223.408 37.75C234.18 37.75 242.535 40.317 248.474 45.451C254.514 50.585 257.534 57.7827 257.534 67.044V116.874H233.374V109.475C229.952 112.495 226.529 114.71 223.106 116.119C219.684 117.428 215.909 118.082 211.781 118.082ZM207.402 94.073C207.402 96.5897 208.459 98.5527 210.573 99.962C212.687 101.271 215.607 101.925 219.331 101.925C221.949 101.925 224.415 101.573 226.73 100.868C229.146 100.063 231.361 98.9553 233.374 97.546V88.335C231.16 87.731 228.895 87.278 226.579 86.976C224.365 86.5733 222.15 86.372 219.935 86.372C216.009 86.372 212.939 87.0263 210.724 88.335C208.51 89.6437 207.402 91.5563 207.402 94.073Z" fill="white"/>
</svg>
