<svg width="358" height="100" viewBox="0 0 358 100" fill="none" xmlns="http://www.w3.org/2000/svg">
<rect y="4.51953" width="69.251" height="12.5543" rx="6.27714" fill="#8A93A7"/>
<rect y="21.1731" width="69.251" height="12.5543" rx="6.27714" fill="#FFB619"/>
<rect y="38.083" width="69.251" height="12.5543" rx="6.27714" fill="#8A93A7"/>
<rect y="54.7368" width="69.251" height="12.5543" rx="6.27714" fill="#FFB619"/>
<path d="M321.147 58.6906V19.5634H333.432V24.8714C336.465 20.9283 340.332 18.9568 345.033 18.9568C347.561 18.9568 349.785 19.5381 351.706 20.7008C353.678 21.813 355.219 23.3801 356.332 25.4022C357.444 27.3737 358 29.6738 358 32.3025V58.6906H345.716V35.8664C345.716 33.6421 345.109 31.8728 343.896 30.5585C342.733 29.2441 341.166 28.5869 339.194 28.5869C338.082 28.5869 337.046 28.7891 336.086 29.1935C335.125 29.5474 334.24 30.1288 333.432 30.9376V58.6906H321.147Z" fill="black"/>
<path d="M285.613 58.6908V29.0421H274.163V19.5636H285.613V15.6964C285.613 5.23212 291.502 0 303.281 0C304.747 0 306.365 0.126381 308.134 0.37914C309.954 0.631899 311.546 0.960486 312.911 1.3649V11.5258C310.99 10.9698 309.398 10.6412 308.134 10.5401C306.87 10.3884 305.682 10.3126 304.57 10.3126C302.093 10.3126 300.349 10.8181 299.338 11.8291C298.377 12.7896 297.897 14.5084 297.897 16.9854V19.5636H312.911V29.0421H297.897V58.6908H285.613Z" fill="black"/>
<path d="M249.928 59.4489C245.884 59.4489 242.244 58.5642 239.009 56.7949C235.774 54.975 233.221 52.5485 231.351 49.5154C229.48 46.4318 228.545 42.9942 228.545 39.2028C228.545 35.3609 229.48 31.9234 231.351 28.8902C233.221 25.8571 235.774 23.4559 239.009 21.6866C242.244 19.8667 245.884 18.9568 249.928 18.9568C254.023 18.9568 257.713 19.8162 260.999 21.5349C264.285 23.2537 266.838 25.5285 268.658 28.3594L259.407 35.1081C258.547 33.3388 257.284 31.9486 255.615 30.9376C253.947 29.9266 252.077 29.421 250.004 29.421C248.235 29.421 246.643 29.8507 245.227 30.7101C243.862 31.5695 242.775 32.7322 241.966 34.1982C241.158 35.6642 240.753 37.3324 240.753 39.2028C240.753 41.0732 241.158 42.7415 241.966 44.2075C242.775 45.6735 243.862 46.8362 245.227 47.6955C246.643 48.5549 248.235 48.9846 250.004 48.9846C252.077 48.9846 253.947 48.4791 255.615 47.4681C257.284 46.4065 258.547 45.0163 259.407 43.2975L268.658 50.0462C266.838 52.8771 264.285 55.152 260.999 56.8707C257.713 58.5895 254.023 59.4489 249.928 59.4489Z" fill="black"/>
<path d="M202.793 59.4491C199.002 59.4491 195.463 58.9689 192.177 58.0084C188.942 56.9974 186.161 55.6325 183.836 53.9137L189.523 46.0276C192.404 47.6958 194.831 48.8585 196.802 49.5157C198.825 50.1223 200.847 50.4256 202.869 50.4256C205.245 50.4256 207.039 50.1476 208.253 49.5915C209.516 49.0355 210.148 48.2519 210.148 47.2409C210.148 46.432 209.693 45.8001 208.783 45.3452C207.924 44.8902 206.761 44.5363 205.295 44.2836C203.88 43.9803 202.313 43.677 200.594 43.3736C198.875 43.0703 197.131 42.6912 195.362 42.2362C193.643 41.7307 192.051 41.0483 190.585 40.1889C189.169 39.3295 188.006 38.2174 187.097 36.8525C186.237 35.437 185.807 33.6677 185.807 31.5445C185.807 28.7641 186.515 26.4388 187.931 24.5683C189.346 22.6979 191.343 21.2825 193.921 20.322C196.55 19.3109 199.583 18.8054 203.02 18.8054C206.053 18.8054 209.112 19.2351 212.196 20.0945C215.279 20.9539 218.11 22.2682 220.688 24.0375L214.774 31.5445C212.802 30.2302 210.78 29.2697 208.707 28.663C206.685 28.0564 204.689 27.7531 202.717 27.7531C200.695 27.7531 199.153 28.0059 198.092 28.5114C197.081 28.9664 196.575 29.6235 196.575 30.4829C196.575 31.2917 197.005 31.9236 197.864 32.3786C198.774 32.783 199.962 33.1116 201.428 33.3644C202.945 33.6171 204.587 33.8952 206.357 34.1985C208.126 34.4512 209.87 34.8304 211.589 35.3359C213.358 35.7909 214.976 36.4733 216.442 37.3832C217.958 38.2426 219.146 39.38 220.006 40.7955C220.916 42.211 221.371 44.0308 221.371 46.2551C221.371 48.9344 220.537 51.2597 218.868 53.2313C217.251 55.2028 215.026 56.7446 212.196 57.8568C209.415 58.9184 206.281 59.4491 202.793 59.4491Z" fill="black"/>
<path d="M143.374 58.6909L135.942 19.5637H145.573L148.909 41.6296L153.383 19.5637H161.951L166.653 41.7055L169.837 19.5637H179.164L171.885 58.6909H162.179L157.629 35.5634L153.155 58.6909H143.374Z" fill="black"/>
<path d="M106.399 59.2972C103.77 59.2972 101.419 58.7917 99.3467 57.7807C97.3247 56.7696 95.7323 55.3794 94.5696 53.6101C93.4574 51.8408 92.9014 49.7934 92.9014 47.4681C92.9014 45.0416 93.508 42.9942 94.7212 41.326C95.9345 39.6072 97.6785 38.3182 99.9534 37.4588C102.228 36.5489 104.958 36.0939 108.143 36.0939C109.558 36.0939 110.999 36.2455 112.465 36.5489C113.931 36.8522 115.523 37.3577 117.242 38.0654V34.729C117.242 32.808 116.61 31.3926 115.346 30.4826C114.083 29.5221 112.136 29.0419 109.508 29.0419C108.042 29.0419 106.399 29.2947 104.579 29.8002C102.81 30.2551 100.787 30.9629 98.5126 31.9234L94.1146 23.2031C97.4005 21.7371 100.509 20.6756 103.441 20.0184C106.424 19.3106 109.356 18.9568 112.237 18.9568C117.647 18.9568 121.842 20.2459 124.825 22.824C127.858 25.4022 129.375 29.0166 129.375 33.6674V58.6906H117.242V54.975C115.523 56.4916 113.805 57.6037 112.086 58.3114C110.367 58.9686 108.471 59.2972 106.399 59.2972ZM104.2 47.2406C104.2 48.5044 104.731 49.4901 105.792 50.1979C106.854 50.855 108.32 51.1836 110.19 51.1836C111.504 51.1836 112.743 51.0067 113.906 50.6528C115.119 50.2484 116.231 49.6923 117.242 48.9846V44.3591C116.13 44.0558 114.993 43.8283 113.83 43.6767C112.718 43.4745 111.606 43.3734 110.493 43.3734C108.522 43.3734 106.98 43.7019 105.868 44.3591C104.756 45.0163 104.2 45.9768 104.2 47.2406Z" fill="black"/>
</svg>
