<svg width="400" height="129" viewBox="0 0 400 129" fill="none" xmlns="http://www.w3.org/2000/svg">
<rect y="3.67651" width="77.5827" height="14.0647" rx="7.03235" fill="#FF9B19"/>
<rect y="22.3337" width="77.5827" height="14.0647" rx="7.03235" fill="#3AADA2"/>
<rect y="41.2781" width="77.5827" height="14.0647" rx="7.03235" fill="#893FE4"/>
<rect y="59.9353" width="77.5827" height="14.0647" rx="7.03235" fill="#44317E"/>
<path d="M358.714 66.6863V22.8517H372.476V28.7983C375.874 24.3808 380.206 22.1721 385.473 22.1721C388.305 22.1721 390.797 22.8234 392.949 24.126C395.158 25.3719 396.885 27.1276 398.131 29.3929C399.377 31.6017 400 34.1785 400 37.1235V66.6863H386.238V41.1161C386.238 38.6242 385.558 36.6421 384.199 35.1696C382.897 33.6971 381.141 32.9609 378.932 32.9609C377.686 32.9609 376.525 33.1874 375.449 33.6405C374.373 34.0369 373.382 34.6882 372.476 35.5943V66.6863H358.714Z" fill="black"/>
<path d="M318.905 66.6865V33.4707H306.077V22.8519H318.905V18.5194C318.905 6.79617 325.503 0.93457 338.698 0.93457C340.341 0.93457 342.153 1.07616 344.135 1.35932C346.174 1.64249 347.958 2.01061 349.487 2.46369V13.8471C347.335 13.2241 345.551 12.856 344.135 12.7427C342.719 12.5728 341.388 12.4879 340.142 12.4879C337.367 12.4879 335.413 13.0542 334.281 14.1869C333.205 15.2629 332.667 17.1885 332.667 19.9635V22.8519H349.487V33.4707H332.667V66.6865H318.905Z" fill="black"/>
<path d="M278.927 67.5358C274.396 67.5358 270.318 66.5447 266.694 64.5626C263.069 62.5237 260.209 59.8053 258.114 56.4073C256.018 52.9526 254.971 49.1015 254.971 44.854C254.971 40.5498 256.018 36.6987 258.114 33.3007C260.209 29.9026 263.069 27.2125 266.694 25.2303C270.318 23.1915 274.396 22.1721 278.927 22.1721C283.514 22.1721 287.648 23.1349 291.33 25.0605C295.011 26.986 297.871 29.5345 299.91 32.706L289.546 40.2666C288.583 38.2844 287.167 36.727 285.298 35.5943C283.429 34.4617 281.334 33.8953 279.012 33.8953C277.03 33.8953 275.246 34.3767 273.66 35.3395C272.131 36.3023 270.913 37.6048 270.007 39.2472C269.101 40.8896 268.648 42.7585 268.648 44.854C268.648 46.9494 269.101 48.8183 270.007 50.4607C270.913 52.1031 272.131 53.4057 273.66 54.3685C275.246 55.3312 277.03 55.8126 279.012 55.8126C281.334 55.8126 283.429 55.2463 285.298 54.1136C287.167 52.9243 288.583 51.3669 289.546 49.4413L299.91 57.0019C297.871 60.1734 295.011 62.722 291.33 64.6475C287.648 66.5731 283.514 67.5358 278.927 67.5358Z" fill="black"/>
<path d="M226.12 67.5358C221.873 67.5358 217.909 66.9978 214.227 65.9217C210.603 64.7891 207.488 63.2599 204.883 61.3344L211.254 52.4995C214.482 54.3684 217.201 55.671 219.409 56.4073C221.675 57.0869 223.94 57.4267 226.205 57.4267C228.867 57.4267 230.878 57.1152 232.237 56.4922C233.653 55.8692 234.361 54.9914 234.361 53.8587C234.361 52.9526 233.851 52.2447 232.832 51.735C231.869 51.2253 230.566 50.8288 228.924 50.5456C227.338 50.2058 225.582 49.866 223.657 49.5262C221.731 49.1864 219.778 48.7617 217.795 48.252C215.87 47.6856 214.086 46.9211 212.443 45.9583C210.858 44.9955 209.555 43.7496 208.536 42.2205C207.573 40.6347 207.092 38.6525 207.092 36.2739C207.092 33.1591 207.884 30.5539 209.47 28.4585C211.056 26.363 213.293 24.7773 216.181 23.7012C219.126 22.5685 222.524 22.0022 226.375 22.0022C229.773 22.0022 233.2 22.4836 236.654 23.4464C240.109 24.4091 243.281 25.8816 246.169 27.8638L239.543 36.2739C237.334 34.8014 235.069 33.7254 232.747 33.0458C230.481 32.3662 228.244 32.0264 226.036 32.0264C223.77 32.0264 222.043 32.3096 220.854 32.8759C219.721 33.3856 219.155 34.1218 219.155 35.0846C219.155 35.9908 219.636 36.6987 220.599 37.2084C221.618 37.6614 222.949 38.0296 224.591 38.3127C226.29 38.5959 228.131 38.9074 230.113 39.2472C232.095 39.5304 234.049 39.9551 235.975 40.5215C237.957 41.0312 239.769 41.7957 241.412 42.8151C243.111 43.7779 244.442 45.0522 245.404 46.6379C246.424 48.2237 246.933 50.2625 246.933 52.7544C246.933 55.756 245.999 58.3611 244.13 60.5698C242.318 62.7786 239.826 64.5059 236.654 65.7518C233.54 66.9411 230.028 67.5358 226.12 67.5358Z" fill="black"/>
<path d="M159.552 66.6864L151.227 22.8518H162.015L165.753 47.5725L170.765 22.8518H180.365L185.632 47.6574L189.2 22.8518H199.648L191.493 66.6864H180.62L175.522 40.7764L170.51 66.6864H159.552Z" fill="black"/>
<path d="M118.129 67.3659C115.184 67.3659 112.551 66.7996 110.229 65.6669C107.963 64.5342 106.179 62.9768 104.877 60.9946C103.631 59.0124 103.008 56.7188 103.008 54.1136C103.008 51.3952 103.687 49.1015 105.047 47.2326C106.406 45.307 108.36 43.8629 110.908 42.9001C113.457 41.8807 116.515 41.371 120.083 41.371C121.669 41.371 123.283 41.5409 124.925 41.8807C126.567 42.2205 128.351 42.7868 130.277 43.5797V39.8419C130.277 37.6898 129.569 36.104 128.153 35.0846C126.737 34.0086 124.557 33.4706 121.612 33.4706C119.97 33.4706 118.129 33.7537 116.09 34.3201C114.108 34.8298 111.843 35.6227 109.294 36.6987L104.367 26.9294C108.048 25.287 111.531 24.0977 114.816 23.3614C118.157 22.5686 121.442 22.1721 124.67 22.1721C130.73 22.1721 135.431 23.6163 138.772 26.5046C142.17 29.3929 143.869 33.4423 143.869 38.6526V66.6863H130.277V62.5237C128.351 64.2227 126.426 65.4687 124.5 66.2616C122.575 66.9978 120.451 67.3659 118.129 67.3659ZM115.665 53.8588C115.665 55.2746 116.26 56.379 117.449 57.1718C118.639 57.9081 120.281 58.2762 122.377 58.2762C123.849 58.2762 125.237 58.078 126.539 57.6815C127.898 57.2285 129.144 56.6055 130.277 55.8126V50.6306C129.031 50.2908 127.757 50.036 126.454 49.8661C125.208 49.6395 123.962 49.5263 122.716 49.5263C120.508 49.5263 118.78 49.8944 117.534 50.6306C116.288 51.3669 115.665 52.4429 115.665 53.8588Z" fill="black"/>
</svg>
